<?xml version="1.0" encoding="UTF-8"?>
<svg xmlns="http://www.w3.org/2000/svg" viewBox="0 0 512 512" width="512" height="512">
  <defs>
    <radialGradient id="bg" cx="50%" cy="40%" r="75%">
      <stop offset="0%" stop-color="#9b8cff"/>
      <stop offset="55%" stop-color="#6c63ff"/>
      <stop offset="100%" stop-color="#3f37c9"/>
    </radialGradient>
    <linearGradient id="body" x1="0%" y1="0%" x2="0%" y2="100%">
      <stop offset="0%" stop-color="#a07854"/>
      <stop offset="100%" stop-color="#6f4c2c"/>
    </linearGradient>
    <linearGradient id="belly" x1="0%" y1="0%" x2="0%" y2="100%">
      <stop offset="0%" stop-color="#fff5e0"/>
      <stop offset="100%" stop-color="#f5d9a8"/>
    </linearGradient>
    <linearGradient id="cap" x1="0%" y1="0%" x2="0%" y2="100%">
      <stop offset="0%" stop-color="#222"/>
      <stop offset="100%" stop-color="#000"/>
    </linearGradient>
    <linearGradient id="tassel" x1="0%" y1="0%" x2="0%" y2="100%">
      <stop offset="0%" stop-color="#ffd54f"/>
      <stop offset="100%" stop-color="#f9a825"/>
    </linearGradient>
    <radialGradient id="eye" cx="40%" cy="35%" r="65%">
      <stop offset="0%" stop-color="#fff"/>
      <stop offset="100%" stop-color="#e8e8f0"/>
    </radialGradient>
    <linearGradient id="beak" x1="0%" y1="0%" x2="0%" y2="100%">
      <stop offset="0%" stop-color="#ffb74d"/>
      <stop offset="100%" stop-color="#f57c00"/>
    </linearGradient>
  </defs>

  <rect x="0" y="0" width="512" height="512" rx="96" ry="96" fill="url(#bg)"/>

  <g fill="#ffffff" opacity="0.45">
    <circle cx="80"  cy="100" r="3"/>
    <circle cx="430" cy="120" r="4"/>
    <circle cx="60"  cy="380" r="3"/>
    <circle cx="450" cy="400" r="3"/>
    <circle cx="120" cy="60"  r="2"/>
    <circle cx="380" cy="60"  r="2"/>
  </g>

  <g transform="translate(256 280)">
    <ellipse cx="-110" cy="20" rx="60" ry="100" fill="#5d3d1f" transform="rotate(-15 -110 20)"/>
    <ellipse cx="110"  cy="20" rx="60" ry="100" fill="#5d3d1f" transform="rotate(15 110 20)"/>

    <ellipse cx="0" cy="20" rx="135" ry="155" fill="url(#body)"/>
    <ellipse cx="0" cy="60" rx="85"  ry="100" fill="url(#belly)"/>

    <g fill="#f57c00">
      <path d="M -55 165 q -10 14 -22 14 q -8 0 -10 -6 q -2 -8 8 -10 q 8 -2 12 -10 z"/>
      <path d="M -30 168 q -2 14 -10 18 q -6 4 -10 -2 q -4 -6 4 -12 q 6 -4 8 -12 z"/>
      <path d="M  55 165 q 10 14 22 14 q 8 0 10 -6 q 2 -8 -8 -10 q -8 -2 -12 -10 z"/>
      <path d="M  30 168 q 2 14 10 18 q 6 4 10 -2 q 4 -6 -4 -12 q -6 -4 -8 -12 z"/>
    </g>

    <path d="M -90 -135 l 20 -55 l 30 30 z" fill="#5d3d1f"/>
    <path d="M  90 -135 l -20 -55 l -30 30 z" fill="#5d3d1f"/>

    <ellipse cx="0" cy="-30" rx="115" ry="105" fill="#8d6240"/>

    <circle cx="-48" cy="-40" r="46" fill="url(#eye)" stroke="#3f2a18" stroke-width="3"/>
    <circle cx="48"  cy="-40" r="46" fill="url(#eye)" stroke="#3f2a18" stroke-width="3"/>

    <circle cx="-44" cy="-36" r="22" fill="#1a1a2e"/>
    <circle cx="52"  cy="-36" r="22" fill="#1a1a2e"/>

    <circle cx="-37" cy="-44" r="8" fill="#fff"/>
    <circle cx="-50" cy="-26" r="3" fill="#fff"/>
    <circle cx="59"  cy="-44" r="8" fill="#fff"/>
    <circle cx="46"  cy="-26" r="3" fill="#fff"/>

    <path d="M 0 -8 l -16 18 q 16 12 32 0 z" fill="url(#beak)" stroke="#c45a00" stroke-width="2"/>

    <ellipse cx="-78" cy="0" rx="14" ry="9" fill="#ff7e9d" opacity="0.55"/>
    <ellipse cx="78"  cy="0" rx="14" ry="9" fill="#ff7e9d" opacity="0.55"/>

    <g stroke="#5d3d1f" stroke-width="2" fill="none" opacity="0.5">
      <path d="M -90 50  q 15 -10 30 0"/>
      <path d="M -90 75  q 15 -10 30 0"/>
      <path d="M -90 100 q 15 -10 30 0"/>
      <path d="M  60 50  q 15 -10 30 0"/>
      <path d="M  60 75  q 15 -10 30 0"/>
      <path d="M  60 100 q 15 -10 30 0"/>
    </g>
  </g>

  <g transform="translate(256 130)">
    <ellipse cx="0" cy="20" rx="78" ry="22" fill="url(#cap)"/>
    <g transform="rotate(-8)">
      <rect x="-95" y="-12" width="190" height="22" rx="3" ry="3" fill="url(#cap)" stroke="#000" stroke-width="2"/>
      <rect x="-93" y="-10" width="186" height="4"  rx="2" ry="2" fill="#3a3a3a"/>
    </g>
    <circle cx="0" cy="-2" r="6" fill="url(#tassel)" stroke="#b8860b" stroke-width="1"/>
    <path d="M 0 0 q 38 22 50 56" stroke="url(#tassel)" stroke-width="5" fill="none" stroke-linecap="round"/>
    <circle cx="50" cy="58" r="6" fill="url(#tassel)"/>
    <g stroke="url(#tassel)" stroke-width="2" stroke-linecap="round">
      <line x1="50" y1="60" x2="46" y2="78"/>
      <line x1="52" y1="60" x2="52" y2="80"/>
      <line x1="54" y1="60" x2="58" y2="78"/>
    </g>
  </g>
</svg>
